<?xml version="1.0" encoding="UTF-8"?>
<!DOCTYPE svg PUBLIC "-//W3C//DTD SVG 1.1//EN" "http://www.w3.org/Graphics/SVG/1.1/DTD/svg11.dtd">
<svg xmlns="http://www.w3.org/2000/svg" version="1.1" width="256px" height="256px" style="shape-rendering:geometricPrecision; text-rendering:geometricPrecision; image-rendering:optimizeQuality; fill-rule:evenodd; clip-rule:evenodd" xmlns:xlink="http://www.w3.org/1999/xlink">
<g><path style="opacity:0.905" fill="#010303" d="M 115.5,5.5 C 175.952,3.42473 218.452,29.7581 243,84.5C 257.82,131.061 249.82,173.061 219,210.5C 180.68,249.037 135.514,259.871 83.5,243C 44.8648,226.915 19.6982,198.748 8,158.5C -2.97802,98.3236 17.1886,52.157 68.5,20C 83.5204,12.8248 99.1871,7.99147 115.5,5.5 Z"/></g>
<g><path style="opacity:1" fill="#3f9ebc" d="M 210.5,207.5 C 209.448,207.351 208.448,207.517 207.5,208C 199.554,216.158 190.721,222.325 181,226.5C 176.758,228.956 172.425,231.289 168,233.5C 167.667,233.167 167.333,232.833 167,232.5C 161.64,235.248 156.14,236.582 150.5,236.5C 148.51,237.873 146.343,238.873 144,239.5C 132.897,239.654 121.73,239.654 110.5,239.5C 105.757,237.209 100.757,235.876 95.5,235.5C 96.7664,230.035 98.433,224.701 100.5,219.5C 101.222,219.918 101.722,220.584 102,221.5C 135.851,228.733 167.018,221.399 195.5,199.5C 219.193,177.189 231.193,149.855 231.5,117.5C 230.907,115.618 230.24,113.785 229.5,112C 226.935,78.3057 210.101,51.4724 179,31.5C 178.667,31.8333 178.333,32.1667 178,32.5C 177.626,31.5838 177.126,30.7504 176.5,30C 168.985,27.646 161.485,24.4793 154,20.5C 153.667,20.8333 153.333,21.1667 153,21.5C 144.258,19.8418 135.425,18.5085 126.5,17.5C 121.282,18.452 116.115,19.452 111,20.5C 110.586,20.0426 110.086,19.7093 109.5,19.5C 106.342,19.8258 103.508,20.8258 101,22.5C 98.7105,21.9778 96.5438,22.6445 94.5,24.5C 93.8333,24.1667 93.1667,23.8333 92.5,23.5C 90.5052,25.1097 88.3386,26.4431 86,27.5C 85.3054,30.385 84.4721,33.2184 83.5,36C 84.8551,38.2009 84.5217,39.8675 82.5,41C 83.5914,43.0639 83.7581,45.2305 83,47.5C 81.4183,50.8099 80.2516,54.1432 79.5,57.5C 77.5227,59.8138 75.5227,62.1472 73.5,64.5C 73.7598,61.3443 73.4265,58.0109 72.5,54.5C 72.0929,47.5463 72.5929,40.5463 74,33.5C 76.9623,31.7798 79.4623,29.6131 81.5,27C 81.1667,26.6667 80.8333,26.3333 80.5,26C 81.8228,25.1841 82.4894,24.0174 82.5,22.5C 128.618,5.49094 170.285,12.9909 207.5,45C 243.598,83.397 251.764,127.23 232,176.5C 226.559,188.094 219.393,198.428 210.5,207.5 Z"/></g>
<g><path style="opacity:1" fill="#48a5c1" d="M 100.5,219.5 C 100.5,219.167 100.5,218.833 100.5,218.5C 110.842,218.246 119.008,213.913 125,205.5C 125.495,203.527 125.662,201.527 125.5,199.5C 146.051,200.039 164.051,193.539 179.5,180C 186.492,172.693 192.992,165.193 199,157.5C 201.354,153.491 202.188,149.325 201.5,145C 202.982,139.733 204.982,134.566 207.5,129.5C 206.637,128.274 206.637,126.94 207.5,125.5C 224.485,99.4191 221.818,75.5857 199.5,54C 185.594,44.465 170.594,41.965 154.5,46.5C 152.983,46.4894 151.816,45.8228 151,44.5C 150.667,44.8333 150.333,45.1667 150,45.5C 142.006,44.445 134.006,43.445 126,42.5C 120.549,44.335 115.049,44.6683 109.5,43.5C 102.019,45.8208 95.0186,49.1542 88.5,53.5C 87.2404,55.3529 87.2404,57.1862 88.5,59C 87.1279,60.2419 86.1279,61.7419 85.5,63.5C 86.5253,70.7088 85.8586,78.0422 83.5,85.5C 84.0933,87.3817 84.7599,89.2151 85.5,91C 85.5295,95.7829 85.1962,100.616 84.5,105.5C 82.8333,107.5 81.1667,109.5 79.5,111.5C 79.1667,111.5 78.8333,111.5 78.5,111.5C 78.1687,93.4854 78.5021,75.4854 79.5,57.5C 80.2516,54.1432 81.4183,50.8099 83,47.5C 83.7581,45.2305 83.5914,43.0639 82.5,41C 84.5217,39.8675 84.8551,38.2009 83.5,36C 84.4721,33.2184 85.3054,30.385 86,27.5C 88.3386,26.4431 90.5052,25.1097 92.5,23.5C 93.1667,23.8333 93.8333,24.1667 94.5,24.5C 96.5438,22.6445 98.7105,21.9778 101,22.5C 103.508,20.8258 106.342,19.8258 109.5,19.5C 110.086,19.7093 110.586,20.0426 111,20.5C 116.115,19.452 121.282,18.452 126.5,17.5C 135.425,18.5085 144.258,19.8418 153,21.5C 153.333,21.1667 153.667,20.8333 154,20.5C 161.485,24.4793 168.985,27.646 176.5,30C 177.126,30.7504 177.626,31.5838 178,32.5C 178.333,32.1667 178.667,31.8333 179,31.5C 210.101,51.4724 226.935,78.3057 229.5,112C 230.24,113.785 230.907,115.618 231.5,117.5C 231.193,149.855 219.193,177.189 195.5,199.5C 167.018,221.399 135.851,228.733 102,221.5C 101.722,220.584 101.222,219.918 100.5,219.5 Z"/></g>
<g><path style="opacity:1" fill="#58adc7" d="M 154.5,46.5 C 151.574,51.5839 151.907,56.4172 155.5,61C 163.473,62.0353 171.473,63.0353 179.5,64C 198.442,73.1487 204.275,87.6487 197,107.5C 195.248,110.672 193.248,113.672 191,116.5C 189.721,126.22 193.887,130.053 203.5,128C 204.984,127.338 206.317,126.504 207.5,125.5C 206.637,126.94 206.637,128.274 207.5,129.5C 204.982,134.566 202.982,139.733 201.5,145C 202.188,149.325 201.354,153.491 199,157.5C 192.992,165.193 186.492,172.693 179.5,180C 164.051,193.539 146.051,200.039 125.5,199.5C 121.245,191.991 117.245,184.324 113.5,176.5C 118.737,176.902 123.903,177.569 129,178.5C 133.336,177.349 137.836,176.515 142.5,176C 149.631,173.627 156.131,170.127 162,165.5C 162.333,165.833 162.667,166.167 163,166.5C 165.07,164.93 166.57,162.93 167.5,160.5C 178.63,161.527 183.463,156.527 182,145.5C 164.64,115.284 147.14,85.117 129.5,55C 124.208,51.5664 119.041,51.7331 114,55.5C 108.963,71.575 101.296,86.2416 91,99.5C 88.9633,101.706 86.7966,103.706 84.5,105.5C 85.1962,100.616 85.5295,95.7829 85.5,91C 84.7599,89.2151 84.0933,87.3817 83.5,85.5C 85.8586,78.0422 86.5253,70.7088 85.5,63.5C 86.1279,61.7419 87.1279,60.2419 88.5,59C 87.2404,57.1862 87.2404,55.3529 88.5,53.5C 95.0186,49.1542 102.019,45.8208 109.5,43.5C 115.049,44.6683 120.549,44.335 126,42.5C 134.006,43.445 142.006,44.445 150,45.5C 150.333,45.1667 150.667,44.8333 151,44.5C 151.816,45.8228 152.983,46.4894 154.5,46.5 Z"/></g>
<g><path style="opacity:1" fill="#a2cbd8" d="M 207.5,125.5 C 206.317,126.504 204.984,127.338 203.5,128C 193.887,130.053 189.721,126.22 191,116.5C 193.248,113.672 195.248,110.672 197,107.5C 204.275,87.6487 198.442,73.1487 179.5,64C 171.473,63.0353 163.473,62.0353 155.5,61C 151.907,56.4172 151.574,51.5839 154.5,46.5C 170.594,41.965 185.594,44.465 199.5,54C 221.818,75.5857 224.485,99.4191 207.5,125.5 Z"/></g>
<g><path style="opacity:1" fill="#050707" d="M 158.5,48.5 C 178.446,45.5682 194.613,51.9016 207,67.5C 218.113,87.4256 216.613,106.259 202.5,124C 198.496,125.327 195.829,123.994 194.5,120C 195.924,116.908 197.757,114.074 200,111.5C 209.49,89.6373 203.99,72.8039 183.5,61C 176.419,57.7256 169.086,56.8922 161.5,58.5C 156.071,56.6565 155.071,53.3231 158.5,48.5 Z"/></g>
<g><path style="opacity:1" fill="#4191aa" d="M 82.5,22.5 C 82.4894,24.0174 81.8228,25.1841 80.5,26C 80.8333,26.3333 81.1667,26.6667 81.5,27C 79.4623,29.6131 76.9623,31.7798 74,33.5C 72.5929,40.5463 72.0929,47.5463 72.5,54.5C 69.9277,57.9692 67.5943,61.6358 65.5,65.5C 65.6207,66.8945 65.954,68.2278 66.5,69.5C 65.5451,76.4521 64.8784,83.2854 64.5,90C 65.8398,95.0267 66.5065,99.6934 66.5,104C 64.8468,109.338 64.1801,114.838 64.5,120.5C 61.4512,122.863 58.1178,124.863 54.5,126.5C 54.7412,121.505 55.0746,116.505 55.5,111.5C 53.2611,99.372 52.5944,87.372 53.5,75.5C 53.0814,74.3279 52.4147,73.3279 51.5,72.5C 52.3487,67.2272 52.3487,62.0606 51.5,57C 53.8027,51.0516 55.1361,44.885 55.5,38.5C 63.7073,31.8937 72.7073,26.5604 82.5,22.5 Z"/></g>
<g><path style="opacity:1" fill="#050505" d="M 77.5,175.5 C 75.9256,175.063 74.7589,174.063 74,172.5C 66.953,159.57 59.7863,146.737 52.5,134C 52.6448,133.228 52.9781,132.561 53.5,132C 63.4022,126.893 72.7355,121.059 81.5,114.5C 98.7598,99.3802 110.593,80.7135 117,58.5C 120.936,55.686 124.603,56.0193 128,59.5C 143.747,87.3302 159.747,114.997 176,142.5C 178.753,146.333 179.086,150.333 177,154.5C 175.426,155.848 173.593,156.514 171.5,156.5C 152.12,152.335 132.787,152.502 113.5,157C 100.753,161.873 88.7529,168.039 77.5,175.5 Z"/></g>
<g><path style="opacity:1" fill="#add2dd" d="M 154.5,66.5 C 181.06,65.5586 193.56,78.2253 192,104.5C 190.623,111.436 187.123,116.936 181.5,121C 172.508,121.672 168.675,117.506 170,108.5C 174.931,102.589 175.598,96.2554 172,89.5C 170.048,87.1064 167.548,85.6064 164.5,85C 160.5,84.6667 156.5,84.3333 152.5,84C 146.755,77.3887 147.421,71.5554 154.5,66.5 Z"/></g>
<g><path style="opacity:1" fill="#060808" d="M 155.5,70.5 C 179.331,70.1625 190.164,81.8291 188,105.5C 186.371,109.931 183.871,113.764 180.5,117C 176.541,117.718 174.208,116.051 173.5,112C 183.883,91.4345 177.55,80.7679 154.5,80C 151.753,76.5527 152.087,73.386 155.5,70.5 Z"/></g>
<g><path style="opacity:1" fill="#4d9bb3" d="M 72.5,54.5 C 73.4265,58.0109 73.7598,61.3443 73.5,64.5C 75.5227,62.1472 77.5227,59.8138 79.5,57.5C 78.5021,75.4854 78.1687,93.4854 78.5,111.5C 74.3757,115.281 69.7091,118.281 64.5,120.5C 64.1801,114.838 64.8468,109.338 66.5,104C 66.5065,99.6934 65.8398,95.0267 64.5,90C 64.8784,83.2854 65.5451,76.4521 66.5,69.5C 65.954,68.2278 65.6207,66.8945 65.5,65.5C 67.5943,61.6358 69.9277,57.9692 72.5,54.5 Z"/></g>
<g><path style="opacity:1" fill="#2b7088" d="M 32.5,64.5 C 32.6118,74.9356 32.2785,85.4356 31.5,96C 33.2559,109.958 34.9225,124.125 36.5,138.5C 27.4329,153.321 28.7662,167.155 40.5,180C 44.1438,182.656 48.1438,184.489 52.5,185.5C 52.5,185.833 52.5,186.167 52.5,186.5C 55.9209,199.536 60.2543,212.203 65.5,224.5C 59.537,220.84 53.8703,216.674 48.5,212C 45.041,208.229 41.7076,204.395 38.5,200.5C 37.5665,191.533 34.7331,183.2 30,175.5C 24.5239,149.168 20.6906,122.334 18.5,95C 20.3137,92.5185 20.9804,89.6852 20.5,86.5C 22.9652,78.2293 26.9652,70.896 32.5,64.5 Z"/></g>
<g><path style="opacity:1" fill="#aed2dd" d="M 167.5,160.5 C 164.742,159.239 161.742,158.406 158.5,158C 135.468,154.422 114.135,158.589 94.5,170.5C 89.5,173.167 84.5,175.833 79.5,178.5C 77.1759,178.123 76.5092,177.123 77.5,175.5C 88.7529,168.039 100.753,161.873 113.5,157C 132.787,152.502 152.12,152.335 171.5,156.5C 173.593,156.514 175.426,155.848 177,154.5C 179.086,150.333 178.753,146.333 176,142.5C 159.747,114.997 143.747,87.3302 128,59.5C 124.603,56.0193 120.936,55.686 117,58.5C 110.593,80.7135 98.7598,99.3802 81.5,114.5C 81.7148,112.821 81.0481,111.821 79.5,111.5C 81.1667,109.5 82.8333,107.5 84.5,105.5C 86.7966,103.706 88.9633,101.706 91,99.5C 101.296,86.2416 108.963,71.575 114,55.5C 119.041,51.7331 124.208,51.5664 129.5,55C 147.14,85.117 164.64,115.284 182,145.5C 183.463,156.527 178.63,161.527 167.5,160.5 Z"/></g>
<g><path style="opacity:1" fill="#378098" d="M 55.5,38.5 C 55.1361,44.885 53.8027,51.0516 51.5,57C 52.3487,62.0606 52.3487,67.2272 51.5,72.5C 52.4147,73.3279 53.0814,74.3279 53.5,75.5C 52.5944,87.372 53.2611,99.372 55.5,111.5C 55.0746,116.505 54.7412,121.505 54.5,126.5C 51.0135,127.732 48.6802,130.065 47.5,133.5C 48.9184,137.333 50.5851,141 52.5,144.5C 52.7845,146.415 52.4511,148.081 51.5,149.5C 49.1942,145.517 46.8609,141.517 44.5,137.5C 41.5572,136.025 38.8906,136.358 36.5,138.5C 34.9225,124.125 33.2559,109.958 31.5,96C 32.2785,85.4356 32.6118,74.9356 32.5,64.5C 38.744,54.5885 46.4106,45.9218 55.5,38.5 Z"/></g>
<g><path style="opacity:1" fill="#25657c" d="M 20.5,86.5 C 20.9804,89.6852 20.3137,92.5185 18.5,95C 20.6906,122.334 24.5239,149.168 30,175.5C 34.7331,183.2 37.5665,191.533 38.5,200.5C 17.9897,174.866 9.4897,145.533 13,112.5C 14.2797,103.365 16.7797,94.698 20.5,86.5 Z"/></g>
<g><path style="opacity:1" fill="#dcdcdc" d="M 137.5,109.5 C 138.376,109.369 139.043,109.702 139.5,110.5C 137.713,111.316 136.046,112.316 134.5,113.5C 132.998,115.833 133.498,117.499 136,118.5C 141.158,114.994 144.658,116.16 146.5,122C 144.909,127.133 141.576,128.967 136.5,127.5C 140.093,127.258 142.759,125.591 144.5,122.5C 144.167,121.833 143.833,121.167 143.5,120.5C 140.198,119.772 136.865,119.605 133.5,120C 131.604,118.192 131.104,116.025 132,113.5C 133.812,112.023 135.645,110.69 137.5,109.5 Z"/></g>
<g><path style="opacity:1" fill="#dbdbdb" d="M 148.5,103.5 C 149.552,103.351 150.552,103.517 151.5,104C 148.999,105.673 146.666,107.507 144.5,109.5C 144.865,110.902 145.699,111.902 147,112.5C 149.139,111.764 151.139,110.764 153,109.5C 153.667,110.167 153.667,110.833 153,111.5C 151.082,112.542 149.249,113.708 147.5,115C 148.594,116.78 149.594,118.614 150.5,120.5C 152.996,119.42 155.33,118.086 157.5,116.5C 157.833,116.833 158.167,117.167 158.5,117.5C 156.098,119.789 153.265,121.455 150,122.5C 146.425,118.362 143.592,113.695 141.5,108.5C 144.077,107.057 146.41,105.39 148.5,103.5 Z"/></g>
<g><path style="opacity:1" fill="#dfdfdf" d="M 117.5,129.5 C 116.974,127.77 115.974,126.436 114.5,125.5C 114.452,122.708 115.785,120.875 118.5,120C 124.002,119.006 126.336,121.172 125.5,126.5C 128.009,127.921 130.343,129.588 132.5,131.5C 129.868,132.148 127.535,131.315 125.5,129C 123.339,128.278 121.672,128.945 120.5,131C 122.319,133.056 122.985,135.223 122.5,137.5C 120.325,135.15 118.658,132.483 117.5,129.5 Z"/></g>
<g><path style="opacity:1" fill="#141414" d="M 119.5,121.5 C 122.243,121.077 123.576,122.244 123.5,125C 123.291,126.871 122.291,128.038 120.5,128.5C 116.376,126.121 116.043,123.788 119.5,121.5 Z"/></g>
<g><path style="opacity:1" fill="#e0e0e0" d="M 126.5,115.5 C 127.496,115.414 128.329,115.748 129,116.5C 131.151,120.802 133.318,125.136 135.5,129.5C 135.167,129.833 134.833,130.167 134.5,130.5C 130.974,125.97 128.308,120.97 126.5,115.5 Z"/></g>
<g><path style="opacity:1" fill="#f5f5f5" d="M 73.5,127.5 C 74.8734,127.343 76.2068,127.51 77.5,128C 85.1667,135 92.8333,142 100.5,149C 96.695,153.185 92.8617,153.352 89,149.5C 82.0823,150.743 78.4156,154.743 78,161.5C 76.2467,162.627 74.4134,163.627 72.5,164.5C 69.451,153.288 68.1177,141.954 68.5,130.5C 70.3964,129.725 72.063,128.725 73.5,127.5 Z"/></g>
<g><path style="opacity:1" fill="#626262" d="M 113.5,125.5 C 113.833,125.5 114.167,125.5 114.5,125.5C 115.974,126.436 116.974,127.77 117.5,129.5C 116.833,130.5 116.167,131.5 115.5,132.5C 115.834,129.812 115.168,127.479 113.5,125.5 Z"/></g>
<g><path style="opacity:1" fill="#e5e5e5" d="M 113.5,125.5 C 115.168,127.479 115.834,129.812 115.5,132.5C 114.086,134.054 112.419,135.388 110.5,136.5C 111.373,138.413 112.373,140.247 113.5,142C 113,142.5 112.5,143 112,143.5C 109.667,139.5 107.333,135.5 105,131.5C 104.219,130.056 104.386,128.723 105.5,127.5C 107.943,125.945 110.61,125.278 113.5,125.5 Z"/></g>
<g><path style="opacity:1" fill="#111111" d="M 108.5,127.5 C 112.677,126.842 114.177,128.508 113,132.5C 112.311,133.357 111.478,134.023 110.5,134.5C 108.937,133.055 107.604,131.389 106.5,129.5C 107.243,128.818 107.909,128.151 108.5,127.5 Z"/></g>
<g><path style="opacity:1" fill="#111111" d="M 75.5,136.5 C 78.4789,138.812 81.1456,141.479 83.5,144.5C 81.8816,146.316 79.8816,147.649 77.5,148.5C 76.5062,144.548 75.8396,140.548 75.5,136.5 Z"/></g>
<g><path style="opacity:1" fill="#99bac5" d="M 51.5,149.5 C 57.8745,159.744 63.8745,170.244 69.5,181C 69.2231,182.892 68.2231,184.225 66.5,185C 61.8452,185.499 57.1785,185.666 52.5,185.5C 48.1438,184.489 44.1438,182.656 40.5,180C 28.7662,167.155 27.4329,153.321 36.5,138.5C 38.8906,136.358 41.5572,136.025 44.5,137.5C 46.8609,141.517 49.1942,145.517 51.5,149.5 Z"/></g>
<g><path style="opacity:1" fill="#e5e5e5" d="M 98.5,130.5 C 103.813,130.644 105.979,133.31 105,138.5C 103.365,139.726 101.865,141.059 100.5,142.5C 101.929,144.331 102.429,146.331 102,148.5C 98.9155,144 96.0821,139.333 93.5,134.5C 95.21,133.113 96.8767,131.779 98.5,130.5 Z"/></g>
<g><path style="opacity:1" fill="#161616" d="M 98.5,132.5 C 102.976,132.8 104.31,134.967 102.5,139C 98.9447,140.123 96.9447,138.789 96.5,135C 97.0556,133.989 97.7222,133.156 98.5,132.5 Z"/></g>
<g><path style="opacity:1" fill="#040505" d="M 64.5,180.5 C 61.0381,181.482 57.3714,181.815 53.5,181.5C 39.0387,176.829 32.872,166.829 35,151.5C 36.1606,147.17 38.3272,143.503 41.5,140.5C 49.6819,153.53 57.3486,166.863 64.5,180.5 Z"/></g>
<g><path style="opacity:1" fill="#a2c3ce" d="M 78.5,111.5 C 78.8333,111.5 79.1667,111.5 79.5,111.5C 81.0481,111.821 81.7148,112.821 81.5,114.5C 72.7355,121.059 63.4022,126.893 53.5,132C 52.9781,132.561 52.6448,133.228 52.5,134C 59.7863,146.737 66.953,159.57 74,172.5C 74.7589,174.063 75.9256,175.063 77.5,175.5C 76.5092,177.123 77.1759,178.123 79.5,178.5C 77.4402,179.811 75.2735,179.811 73,178.5C 66.3791,166.905 59.5457,155.571 52.5,144.5C 50.5851,141 48.9184,137.333 47.5,133.5C 48.6802,130.065 51.0135,127.732 54.5,126.5C 58.1178,124.863 61.4512,122.863 64.5,120.5C 69.7091,118.281 74.3757,115.281 78.5,111.5 Z"/></g>
<g><path style="opacity:1" fill="#61b1ca" d="M 167.5,160.5 C 166.57,162.93 165.07,164.93 163,166.5C 162.667,166.167 162.333,165.833 162,165.5C 156.131,170.127 149.631,173.627 142.5,176C 137.836,176.515 133.336,177.349 129,178.5C 123.903,177.569 118.737,176.902 113.5,176.5C 111.697,174.519 110.03,172.352 108.5,170C 104.114,169.685 100.114,170.851 96.5,173.5C 96.7148,171.821 96.0481,170.821 94.5,170.5C 114.135,158.589 135.468,154.422 158.5,158C 161.742,158.406 164.742,159.239 167.5,160.5 Z"/></g>
<g><path style="opacity:1" fill="#4c5b60" d="M 64.5,180.5 C 65.0431,180.56 65.3764,180.893 65.5,181.5C 61.3507,182.809 57.3507,182.809 53.5,181.5C 57.3714,181.815 61.0381,181.482 64.5,180.5 Z"/></g>
<g><path style="opacity:1" fill="#a4cad6" d="M 113.5,176.5 C 117.245,184.324 121.245,191.991 125.5,199.5C 125.662,201.527 125.495,203.527 125,205.5C 119.008,213.913 110.842,218.246 100.5,218.5C 97.8045,218.067 95.6379,216.734 94,214.5C 88.563,205.29 83.3963,195.957 78.5,186.5C 78.8757,184.617 79.8757,183.117 81.5,182C 86.5273,179.155 91.5273,176.321 96.5,173.5C 100.114,170.851 104.114,169.685 108.5,170C 110.03,172.352 111.697,174.519 113.5,176.5 Z"/></g>
<g><path style="opacity:1" fill="#030405" d="M 104.5,173.5 C 105.496,173.414 106.329,173.748 107,174.5C 112.256,183.185 117.09,192.018 121.5,201C 121.27,203.7 120.27,206.033 118.5,208C 113.774,211.03 108.774,213.53 103.5,215.5C 100.786,215.06 98.6195,213.726 97,211.5C 92.1121,203.558 87.6121,195.392 83.5,187C 90.1957,181.988 97.1957,177.488 104.5,173.5 Z"/></g>
<g><path style="opacity:1" fill="#32809a" d="M 52.5,186.5 C 57.2137,186.173 61.8804,186.507 66.5,187.5C 69.8323,191.864 71.3323,196.864 71,202.5C 73.9103,212.738 78.0769,222.405 83.5,231.5C 84.7362,232.246 86.0695,232.579 87.5,232.5C 87.5,233.5 87.5,234.5 87.5,235.5C 79.6012,232.884 72.2679,229.217 65.5,224.5C 60.2543,212.203 55.9209,199.536 52.5,186.5 Z"/></g>
<g><path style="opacity:1" fill="#3c91ac" d="M 52.5,144.5 C 59.5457,155.571 66.3791,166.905 73,178.5C 75.2735,179.811 77.4402,179.811 79.5,178.5C 84.5,175.833 89.5,173.167 94.5,170.5C 96.0481,170.821 96.7148,171.821 96.5,173.5C 91.5273,176.321 86.5273,179.155 81.5,182C 79.8757,183.117 78.8757,184.617 78.5,186.5C 83.3963,195.957 88.563,205.29 94,214.5C 95.6379,216.734 97.8045,218.067 100.5,218.5C 100.5,218.833 100.5,219.167 100.5,219.5C 98.433,224.701 96.7664,230.035 95.5,235.5C 100.757,235.876 105.757,237.209 110.5,239.5C 121.73,239.654 132.897,239.654 144,239.5C 146.343,238.873 148.51,237.873 150.5,236.5C 156.14,236.582 161.64,235.248 167,232.5C 167.333,232.833 167.667,233.167 168,233.5C 172.425,231.289 176.758,228.956 181,226.5C 190.721,222.325 199.554,216.158 207.5,208C 208.448,207.517 209.448,207.351 210.5,207.5C 179.386,237.81 142.386,248.643 99.5,240C 95.2848,238.766 91.2848,237.266 87.5,235.5C 87.5,234.5 87.5,233.5 87.5,232.5C 86.0695,232.579 84.7362,232.246 83.5,231.5C 78.0769,222.405 73.9103,212.738 71,202.5C 71.3323,196.864 69.8323,191.864 66.5,187.5C 61.8804,186.507 57.2137,186.173 52.5,186.5C 52.5,186.167 52.5,185.833 52.5,185.5C 57.1785,185.666 61.8452,185.499 66.5,185C 68.2231,184.225 69.2231,182.892 69.5,181C 63.8745,170.244 57.8745,159.744 51.5,149.5C 52.4511,148.081 52.7845,146.415 52.5,144.5 Z"/></g>
</svg>
